<svg height="460.8" viewBox="0 0 460.8 345.6" width="614.4" xmlns="http://www.w3.org/2000/svg" xmlns:xlink="http://www.w3.org/1999/xlink"><defs><style>*{stroke-linecap:butt;stroke-linejoin:round}</style></defs><g id="figure_1"><path d="M0 345.6h460.8V0H0z" style="fill:#fff" id="patch_1"/><g id="axes_1"><path d="M57.6 307.584h357.12V41.472H57.6z" style="fill:#eaeaf2" id="patch_2"/><g id="matplotlib.axis_1"><g id="xtick_1"><path clip-path="url(#p35ae5f9472)" d="M73.833 307.584V41.472" style="fill:none;stroke:#fff;stroke-linecap:round" id="line2d_1"/><g style="fill:#262626" transform="matrix(.11 0 0 -.11 66.188 324.958)" id="text_1"><defs><path d="M4.156 35.297q0 12.703 2.61 20.437 2.609 7.75 7.75 11.938 5.156 4.203 12.968 4.203 5.766 0 10.11-2.328 4.343-2.313 7.172-6.688 2.843-4.359 4.453-10.64 1.61-6.266 1.61-16.922 0-12.594-2.595-20.328Q45.656 7.234 40.5 3q-5.14-4.219-13.016-4.219-10.343 0-16.25 7.422-7.078 8.938-7.078 29.094zm9.032 0q0-17.625 4.124-23.469Q21.438 6 27.485 6q6.063 0 10.188 5.86 4.125 5.859 4.125 23.437 0 17.687-4.125 23.484-4.125 5.813-10.281 5.813-6.047 0-9.672-5.125-4.532-6.532-4.532-24.172z" id="ArialMT-48"/><path d="M9.078 0v10.016h10.016V0z" id="ArialMT-46"/></defs><use xlink:href="#ArialMT-48"/><use x="55.615" xlink:href="#ArialMT-46"/><use x="83.398" xlink:href="#ArialMT-48"/></g></g><g id="xtick_2"><path clip-path="url(#p35ae5f9472)" d="M116.55 307.584V41.472" style="fill:none;stroke:#fff;stroke-linecap:round" id="line2d_2"/><g style="fill:#262626" transform="matrix(.11 0 0 -.11 108.905 324.958)" id="text_2"><defs><path d="M50.344 8.453V0H3.03q-.094 3.172 1.016 6.11 1.812 4.827 5.781 9.515 3.985 4.688 11.516 10.844 11.672 9.562 15.765 15.156 4.11 5.594 4.11 10.578 0 5.219-3.75 8.797-3.735 3.594-9.735 3.594-6.343 0-10.156-3.813-3.812-3.797-3.86-10.531l-9.03.922q.921 10.11 6.968 15.406 6.063 5.297 16.282 5.297 10.296 0 16.296-5.719Q50.25 60.453 50.25 52q0-4.297-1.766-8.453-1.75-4.14-5.828-8.734T29.11 22.218q-7.922-6.64-10.172-9.016-2.234-2.36-3.703-4.75z" id="ArialMT-50"/><path d="m4.156 18.75 9.219.781q1.031-6.734 4.766-10.14Q21.875 6 27.156 6q6.344 0 10.735 4.781 4.39 4.797 4.39 12.703 0 7.516-4.218 11.86-4.22 4.36-11.063 4.36-4.25 0-7.672-1.938-3.406-1.922-5.36-5l-8.25 1.078 6.923 36.765H48.25v-8.406H19.672L15.828 42.97q6.438 4.5 13.516 4.5 9.375 0 15.812-6.5 6.453-6.5 6.453-16.703 0-9.72-5.656-16.797-6.89-8.688-18.797-8.688-9.765 0-15.953 5.469-6.172 5.469-7.047 14.5z" id="ArialMT-53"/></defs><use xlink:href="#ArialMT-50"/><use x="55.615" xlink:href="#ArialMT-46"/><use x="83.398" xlink:href="#ArialMT-53"/></g></g><g id="xtick_3"><path clip-path="url(#p35ae5f9472)" d="M159.268 307.584V41.472" style="fill:none;stroke:#fff;stroke-linecap:round" id="line2d_3"/><g style="fill:#262626" transform="matrix(.11 0 0 -.11 151.623 324.958)" id="text_3"><use xlink:href="#ArialMT-53"/><use x="55.615" xlink:href="#ArialMT-46"/><use x="83.398" xlink:href="#ArialMT-48"/></g></g><g id="xtick_4"><path clip-path="url(#p35ae5f9472)" d="M201.986 307.584V41.472" style="fill:none;stroke:#fff;stroke-linecap:round" id="line2d_4"/><g style="fill:#262626" transform="matrix(.11 0 0 -.11 194.34 324.958)" id="text_4"><defs><path d="M4.734 62.203v8.453h46.344v-6.844q-6.844-7.265-13.562-19.328-6.703-12.062-10.36-24.812Q24.516 10.687 23.781 0H14.75q.14 8.453 3.313 20.406 3.171 11.969 9.109 23.078 5.937 11.11 12.625 18.72z" id="ArialMT-55"/></defs><use xlink:href="#ArialMT-55"/><use x="55.615" xlink:href="#ArialMT-46"/><use x="83.398" xlink:href="#ArialMT-53"/></g></g><g id="xtick_5"><path clip-path="url(#p35ae5f9472)" d="M244.704 307.584V41.472" style="fill:none;stroke:#fff;stroke-linecap:round" id="line2d_5"/><g style="fill:#262626" transform="matrix(.11 0 0 -.11 234 324.958)" id="text_5"><defs><path d="M37.25 0h-8.781v56q-3.172-3.016-8.328-6.047-5.157-3.031-9.25-4.547v8.5q7.375 3.469 12.89 8.39 5.516 4.938 7.813 9.579h5.656z" id="ArialMT-49"/></defs><use xlink:href="#ArialMT-49"/><use x="55.615" xlink:href="#ArialMT-48"/><use x="111.23" xlink:href="#ArialMT-46"/><use x="139.014" xlink:href="#ArialMT-48"/></g></g><g id="xtick_6"><path clip-path="url(#p35ae5f9472)" d="M287.421 307.584V41.472" style="fill:none;stroke:#fff;stroke-linecap:round" id="line2d_6"/><g style="fill:#262626" transform="matrix(.11 0 0 -.11 276.718 324.958)" id="text_6"><use xlink:href="#ArialMT-49"/><use x="55.615" xlink:href="#ArialMT-50"/><use x="111.23" xlink:href="#ArialMT-46"/><use x="139.014" xlink:href="#ArialMT-53"/></g></g><g id="xtick_7"><path clip-path="url(#p35ae5f9472)" d="M330.139 307.584V41.472" style="fill:none;stroke:#fff;stroke-linecap:round" id="line2d_7"/><g style="fill:#262626" transform="matrix(.11 0 0 -.11 319.435 324.958)" id="text_7"><use xlink:href="#ArialMT-49"/><use x="55.615" xlink:href="#ArialMT-53"/><use x="111.23" xlink:href="#ArialMT-46"/><use x="139.014" xlink:href="#ArialMT-48"/></g></g><g id="xtick_8"><path clip-path="url(#p35ae5f9472)" d="M372.857 307.584V41.472" style="fill:none;stroke:#fff;stroke-linecap:round" id="line2d_8"/><g style="fill:#262626" transform="matrix(.11 0 0 -.11 362.153 324.958)" id="text_8"><use xlink:href="#ArialMT-49"/><use x="55.615" xlink:href="#ArialMT-55"/><use x="111.23" xlink:href="#ArialMT-46"/><use x="139.014" xlink:href="#ArialMT-53"/></g></g><g style="fill:#262626" transform="matrix(.12 0 0 -.12 207.71 339.88)" id="text_9"><defs><path d="M25.922 0v63.14H2.344v8.438h56.734v-8.437H35.406V0z" id="ArialMT-84"/><path d="M6.64 61.469v10.11h8.797v-10.11zM6.64 0v51.86h8.797V0z" id="ArialMT-105"/><path d="M6.594 0v51.86h7.86v-7.282q2.437 3.813 6.483 6.125 4.063 2.328 9.235 2.328 5.765 0 9.453-2.39 3.688-2.391 5.203-6.688 6.156 9.078 16.016 9.078 7.718 0 11.86-4.281 4.155-4.266 4.155-13.156V0h-8.75v32.672q0 5.266-.859 7.578-.844 2.328-3.094 3.734-2.234 1.422-5.265 1.422-5.47 0-9.094-3.64-3.61-3.625-3.61-11.641V0h-8.78v33.688q0 5.859-2.157 8.78-2.14 2.938-7.031 2.938-3.703 0-6.86-1.953-3.14-1.953-4.562-5.719-1.422-3.75-1.422-10.828V0z" id="ArialMT-109"/><path d="m42.094 16.703 9.078-1.125q-2.14-7.953-7.953-12.36-5.813-4.39-14.844-4.39-11.375 0-18.047 7-6.672 7.016-6.672 19.656 0 13.094 6.735 20.313 6.75 7.234 17.484 7.234 10.406 0 17-7.078 6.594-7.078 6.594-19.922 0-.781-.047-2.343H12.75q.484-8.547 4.828-13.094 4.344-4.531 10.844-4.531 4.828 0 8.25 2.53 3.422 2.548 5.422 8.11zm-28.86 14.203h28.953q-.578 6.547-3.312 9.813-4.203 5.078-10.89 5.078-6.063 0-10.188-4.047-4.125-4.047-4.563-10.844z" id="ArialMT-101"/><path d="m4.5 23 8.922.781q.64-5.375 2.953-8.812 2.328-3.438 7.203-5.563 4.89-2.125 11-2.125 5.406 0 9.563 1.61 4.156 1.609 6.172 4.406 2.03 2.812 2.03 6.14 0 3.36-1.952 5.875-1.953 2.516-6.438 4.235-2.89 1.125-12.75 3.484-9.86 2.375-13.812 4.469-5.141 2.688-7.657 6.656-2.5 3.985-2.5 8.922 0 5.422 3.063 10.125 3.078 4.719 8.984 7.156 5.922 2.438 13.14 2.438 7.954 0 14.032-2.563 6.094-2.562 9.36-7.546 3.265-4.97 3.515-11.266l-9.078-.688q-.734 6.782-4.969 10.25-4.218 3.47-12.468 3.47-8.594 0-12.532-3.157-3.922-3.14-3.922-7.578 0-3.86 2.782-6.36 2.734-2.484 14.28-5.093 11.548-2.61 15.845-4.563 6.25-2.89 9.218-7.312 2.985-4.407 2.985-10.172 0-5.719-3.266-10.782-3.266-5.046-9.406-7.859-6.125-2.797-13.781-2.797-9.72 0-16.297 2.828-6.563 2.829-10.297 8.516Q4.687 15.828 4.5 23z" id="ArialMT-83"/><path d="M25.781 7.86 27.047.093q-3.703-.781-6.64-.781-4.782 0-7.423 1.515-2.625 1.516-3.703 3.985Q8.203 7.28 8.203 15.188v29.828H1.766v6.843h6.437v12.844l8.735 5.266v-18.11h8.843v-6.843h-8.843V14.703q0-3.765.468-4.844.469-1.062 1.516-1.703 1.047-.64 3-.64 1.469 0 3.86.343z" id="ArialMT-116"/><path d="M6.594-19.875v71.734h8v-6.734q2.844 3.953 6.406 5.922 3.563 1.984 8.64 1.984 6.641 0 11.72-3.422 5.078-3.422 7.656-9.656 2.593-6.219 2.593-13.64 0-7.954-2.859-14.329-2.844-6.375-8.297-9.765Q35.016-1.171 29-1.171q-4.39 0-7.89 1.859-3.485 1.859-5.735 4.687v-25.25zm7.953 45.516q0-10.016 4.047-14.797 4.062-4.781 9.828-4.781 5.86 0 10.031 4.953 4.172 4.953 4.172 15.359 0 9.906-4.078 14.828-4.078 4.938-9.734 4.938-5.625 0-9.954-5.25-4.312-5.25-4.312-15.25z" id="ArialMT-112"/><path d="m3.078 15.484 8.688 1.36q.734-5.219 4.078-8 3.344-2.781 9.36-2.781 6.046 0 8.968 2.453 2.937 2.468 2.937 5.796 0 2.97-2.593 4.688-1.797 1.172-8.985 2.969-9.656 2.453-13.39 4.234-3.735 1.781-5.672 4.922-1.922 3.156-1.922 6.969 0 3.453 1.578 6.406 1.594 2.969 4.328 4.922 2.047 1.5 5.578 2.547 3.547 1.062 7.61 1.062 6.093 0 10.703-1.765 4.625-1.75 6.812-4.766 2.203-3 3.032-8.016l-8.594-1.172q-.578 4-3.39 6.235-2.813 2.25-7.938 2.25-6.047 0-8.641-2-2.594-2-2.594-4.688 0-1.703 1.078-3.078 1.079-1.406 3.375-2.343 1.313-.485 7.766-2.235 9.328-2.5 13-4.094 3.688-1.578 5.781-4.609 2.11-3.016 2.11-7.516 0-4.39-2.563-8.28-2.562-3.876-7.406-6-4.828-2.126-10.922-2.126-10.11 0-15.406 4.203-5.297 4.203-6.766 12.453z" id="ArialMT-115"/></defs><use xlink:href="#ArialMT-84"/><use x="57.334" xlink:href="#ArialMT-105"/><use x="79.551" xlink:href="#ArialMT-109"/><use x="162.852" xlink:href="#ArialMT-101"/><use x="218.467" xlink:href="#ArialMT-83"/><use x="285.166" xlink:href="#ArialMT-116"/><use x="312.949" xlink:href="#ArialMT-101"/><use x="368.564" xlink:href="#ArialMT-112"/><use x="424.18" xlink:href="#ArialMT-115"/></g></g><g id="matplotlib.axis_2"><g id="ytick_1"><path clip-path="url(#p35ae5f9472)" d="M57.6 295.488h357.12" style="fill:none;stroke:#fff;stroke-linecap:round" id="line2d_9"/><g style="fill:#262626" transform="matrix(.11 0 0 -.11 20.268 299.425)" id="text_10"><defs><path d="M52.828 31.203H5.562v8.203h47.266z" id="ArialMT-8722"/></defs><use xlink:href="#ArialMT-8722"/><use x="58.398" xlink:href="#ArialMT-49"/><use x="114.014" xlink:href="#ArialMT-46"/><use x="141.797" xlink:href="#ArialMT-48"/><use x="197.412" xlink:href="#ArialMT-48"/></g></g><g id="ytick_2"><path clip-path="url(#p35ae5f9472)" d="M57.6 265.248h357.12" style="fill:none;stroke:#fff;stroke-linecap:round" id="line2d_10"/><g style="fill:#262626" transform="matrix(.11 0 0 -.11 20.268 269.185)" id="text_11"><use xlink:href="#ArialMT-8722"/><use x="58.398" xlink:href="#ArialMT-48"/><use x="114.014" xlink:href="#ArialMT-46"/><use x="141.797" xlink:href="#ArialMT-55"/><use x="197.412" xlink:href="#ArialMT-53"/></g></g><g id="ytick_3"><path clip-path="url(#p35ae5f9472)" d="M57.6 235.008h357.12" style="fill:none;stroke:#fff;stroke-linecap:round" id="line2d_11"/><g style="fill:#262626" transform="matrix(.11 0 0 -.11 20.268 238.945)" id="text_12"><use xlink:href="#ArialMT-8722"/><use x="58.398" xlink:href="#ArialMT-48"/><use x="114.014" xlink:href="#ArialMT-46"/><use x="141.797" xlink:href="#ArialMT-53"/><use x="197.412" xlink:href="#ArialMT-48"/></g></g><g id="ytick_4"><path clip-path="url(#p35ae5f9472)" d="M57.6 204.768h357.12" style="fill:none;stroke:#fff;stroke-linecap:round" id="line2d_12"/><g style="fill:#262626" transform="matrix(.11 0 0 -.11 20.268 208.705)" id="text_13"><use xlink:href="#ArialMT-8722"/><use x="58.398" xlink:href="#ArialMT-48"/><use x="114.014" xlink:href="#ArialMT-46"/><use x="141.797" xlink:href="#ArialMT-50"/><use x="197.412" xlink:href="#ArialMT-53"/></g></g><g id="ytick_5"><path clip-path="url(#p35ae5f9472)" d="M57.6 174.528h357.12" style="fill:none;stroke:#fff;stroke-linecap:round" id="line2d_13"/><g style="fill:#262626" transform="matrix(.11 0 0 -.11 26.693 178.465)" id="text_14"><use xlink:href="#ArialMT-48"/><use x="55.615" xlink:href="#ArialMT-46"/><use x="83.398" xlink:href="#ArialMT-48"/><use x="139.014" xlink:href="#ArialMT-48"/></g></g><g id="ytick_6"><path clip-path="url(#p35ae5f9472)" d="M57.6 144.288h357.12" style="fill:none;stroke:#fff;stroke-linecap:round" id="line2d_14"/><g style="fill:#262626" transform="matrix(.11 0 0 -.11 26.693 148.225)" id="text_15"><use xlink:href="#ArialMT-48"/><use x="55.615" xlink:href="#ArialMT-46"/><use x="83.398" xlink:href="#ArialMT-50"/><use x="139.014" xlink:href="#ArialMT-53"/></g></g><g id="ytick_7"><path clip-path="url(#p35ae5f9472)" d="M57.6 114.048h357.12" style="fill:none;stroke:#fff;stroke-linecap:round" id="line2d_15"/><g style="fill:#262626" transform="matrix(.11 0 0 -.11 26.693 117.985)" id="text_16"><use xlink:href="#ArialMT-48"/><use x="55.615" xlink:href="#ArialMT-46"/><use x="83.398" xlink:href="#ArialMT-53"/><use x="139.014" xlink:href="#ArialMT-48"/></g></g><g id="ytick_8"><path clip-path="url(#p35ae5f9472)" d="M57.6 83.808h357.12" style="fill:none;stroke:#fff;stroke-linecap:round" id="line2d_16"/><g style="fill:#262626" transform="matrix(.11 0 0 -.11 26.693 87.745)" id="text_17"><use xlink:href="#ArialMT-48"/><use x="55.615" xlink:href="#ArialMT-46"/><use x="83.398" xlink:href="#ArialMT-55"/><use x="139.014" xlink:href="#ArialMT-53"/></g></g><g id="ytick_9"><path clip-path="url(#p35ae5f9472)" d="M57.6 53.568h357.12" style="fill:none;stroke:#fff;stroke-linecap:round" id="line2d_17"/><g style="fill:#262626" transform="matrix(.11 0 0 -.11 26.693 57.505)" id="text_18"><use xlink:href="#ArialMT-49"/><use x="55.615" xlink:href="#ArialMT-46"/><use x="83.398" xlink:href="#ArialMT-48"/><use x="139.014" xlink:href="#ArialMT-48"/></g></g><g style="fill:#262626" transform="matrix(0 -.12 -.12 0 13.883 191.537)" id="text_19"><defs><path d="M40.438 6.39Q35.547 2.25 31.03.532q-4.515-1.703-9.687-1.703-8.547 0-13.14 4.172-4.595 4.172-4.595 10.672 0 3.812 1.735 6.953 1.734 3.156 4.547 5.063 2.812 1.906 6.328 2.875 2.578.687 7.812 1.328 10.64 1.265 15.672 3.015.047 1.813.047 2.297 0 5.375-2.5 7.578-3.36 2.969-10 2.969-6.203 0-9.156-2.172-2.953-2.172-4.375-7.687l-8.594 1.172q1.172 5.515 3.86 8.906 2.687 3.39 7.765 5.218 5.078 1.844 11.766 1.844 6.64 0 10.78-1.562 4.157-1.563 6.11-3.938 1.953-2.36 2.735-5.984.437-2.234.437-8.094V21.734q0-12.265.563-15.515.562-3.235 2.234-6.219h-9.188q-1.359 2.734-1.75 6.39zm-.735 19.641q-4.797-1.953-14.36-3.328-5.421-.781-7.671-1.765-2.235-.97-3.469-2.844-1.219-1.875-1.219-4.172 0-3.516 2.657-5.86 2.671-2.343 7.796-2.343 5.079 0 9.032 2.218 3.953 2.22 5.812 6.079 1.422 2.984 1.422 8.78z" id="ArialMT-97"/></defs><use xlink:href="#ArialMT-83"/><use x="66.699" xlink:href="#ArialMT-116"/><use x="94.482" xlink:href="#ArialMT-97"/><use x="150.098" xlink:href="#ArialMT-116"/><use x="177.881" xlink:href="#ArialMT-101"/><use x="233.496" xlink:href="#ArialMT-115"/></g></g><g id="PathCollection_1"><path clip-path="url(#p35ae5f9472)" d="M73.833 56.568a3 3 0 1 0 0-6 3 3 0 0 0 0 6zM90.92 189.624a3 3 0 1 0 0-6 3 3 0 0 0 0 6zM108.007 167.851a3 3 0 1 0 0-6 3 3 0 0 0 0 6zM125.094 183.58a3 3 0 1 0 0-6.001 3 3 0 0 0 0 6zM142.181 173.817a3 3 0 1 0 0-6 3 3 0 0 0 0 6zM159.268 179.853a3 3 0 1 0 0-6 3 3 0 0 0 0 6zM176.355 176.168a3 3 0 1 0 0-6 3 3 0 0 0 0 6zM193.442 178.462a3 3 0 1 0 0-6 3 3 0 0 0 0 6zM210.53 177.06a3 3 0 1 0 0-6 3 3 0 0 0 0 6zM227.616 177.916a3 3 0 1 0 0-6 3 3 0 0 0 0 6zM244.704 177.405a3 3 0 1 0 0-6 3 3 0 0 0 0 6zM261.79 177.754a3 3 0 1 0 0-6 3 3 0 0 0 0 6zM278.878 177.49a3 3 0 1 0 0-6 3 3 0 0 0 0 6zM295.965 177.617a3 3 0 1 0 0-6 3 3 0 0 0 0 6zM313.052 177.563a3 3 0 1 0 0-6 3 3 0 0 0 0 6zM330.139 177.607a3 3 0 1 0 0-6 3 3 0 0 0 0 6zM347.226 177.541a3 3 0 1 0 0-6 3 3 0 0 0 0 6zM364.313 177.657a3 3 0 1 0 0-6 3 3 0 0 0 0 6zM381.4 177.56a3 3 0 1 0 0-6 3 3 0 0 0 0 6zM398.487 177.596a3 3 0 1 0 0-6 3 3 0 0 0 0 6z" style="fill:#4c72b0;stroke:#fff;stroke-width:.75"/><path clip-path="url(#p35ae5f9472)" d="m72.333 298.488 1.5-1.5 1.5 1.5 1.5-1.5-1.5-1.5 1.5-1.5-1.5-1.5-1.5 1.5-1.5-1.5-1.5 1.5 1.5 1.5-1.5 1.5zM89.42 80.76l1.5-1.5 1.5 1.5 1.5-1.5-1.5-1.5 1.5-1.5-1.5-1.5-1.5 1.5-1.5-1.5-1.5 1.5 1.5 1.5-1.5 1.5zM106.507 238.039l1.5-1.5 1.5 1.5 1.5-1.5-1.5-1.5 1.5-1.5-1.5-1.5-1.5 1.5-1.5-1.5-1.5 1.5 1.5 1.5-1.5 1.5zM123.594 140.418l1.5-1.5 1.5 1.5 1.5-1.5-1.5-1.5 1.5-1.5-1.5-1.5-1.5 1.5-1.5-1.5-1.5 1.5 1.5 1.5-1.5 1.5zM140.681 200.777l1.5-1.5 1.5 1.5 1.5-1.5-1.5-1.5 1.5-1.5-1.5-1.5-1.5 1.5-1.5-1.5-1.5 1.5 1.5 1.5-1.5 1.5zM157.768 163.932l1.5-1.5 1.5 1.5 1.5-1.5-1.5-1.5 1.5-1.5-1.5-1.5-1.5 1.5-1.5-1.5-1.5 1.5 1.5 1.5-1.5 1.5zM174.855 186.866l1.5-1.5 1.5 1.5 1.5-1.5-1.5-1.5 1.5-1.5-1.5-1.5-1.5 1.5-1.5-1.5-1.5 1.5 1.5 1.5-1.5 1.5zM191.942 172.846l1.5-1.5 1.5 1.5 1.5-1.5-1.5-1.5 1.5-1.5-1.5-1.5-1.5 1.5-1.5-1.5-1.5 1.5 1.5 1.5-1.5 1.5zM209.03 181.412l1.5-1.5 1.5 1.5 1.5-1.5-1.5-1.5 1.5-1.5-1.5-1.5-1.5 1.5-1.5-1.5-1.5 1.5 1.5 1.5-1.5 1.5zM226.116 176.297l1.5-1.5 1.5 1.5 1.5-1.5-1.5-1.5 1.5-1.5-1.5-1.5-1.5 1.5-1.5-1.5-1.5 1.5 1.5 1.5-1.5 1.5zM243.204 179.788l1.5-1.5 1.5 1.5 1.5-1.5-1.5-1.5 1.5-1.5-1.5-1.5-1.5 1.5-1.5-1.5-1.5 1.5 1.5 1.5-1.5 1.5zM260.29 177.15l1.5-1.5 1.5 1.5 1.5-1.5-1.5-1.5 1.5-1.5-1.5-1.5-1.5 1.5-1.5-1.5-1.5 1.5 1.5 1.5-1.5 1.5zM277.378 178.414l1.5-1.5 1.5 1.5 1.5-1.5-1.5-1.5 1.5-1.5-1.5-1.5-1.5 1.5-1.5-1.5-1.5 1.5 1.5 1.5-1.5 1.5zM294.465 177.873l1.5-1.5 1.5 1.5 1.5-1.5-1.5-1.5 1.5-1.5-1.5-1.5-1.5 1.5-1.5-1.5-1.5 1.5 1.5 1.5-1.5 1.5zM311.552 178.32l1.5-1.5 1.5 1.5 1.5-1.5-1.5-1.5 1.5-1.5-1.5-1.5-1.5 1.5-1.5-1.5-1.5 1.5 1.5 1.5-1.5 1.5zM328.639 177.658l1.5-1.5 1.5 1.5 1.5-1.5-1.5-1.5 1.5-1.5-1.5-1.5-1.5 1.5-1.5-1.5-1.5 1.5 1.5 1.5-1.5 1.5zM345.726 178.816l1.5-1.5 1.5 1.5 1.5-1.5-1.5-1.5 1.5-1.5-1.5-1.5-1.5 1.5-1.5-1.5-1.5 1.5 1.5 1.5-1.5 1.5zM362.813 177.85l1.5-1.5 1.5 1.5 1.5-1.5-1.5-1.5 1.5-1.5-1.5-1.5-1.5 1.5-1.5-1.5-1.5 1.5 1.5 1.5-1.5 1.5zM379.9 178.208l1.5-1.5 1.5 1.5 1.5-1.5-1.5-1.5 1.5-1.5-1.5-1.5-1.5 1.5-1.5-1.5-1.5 1.5 1.5 1.5-1.5 1.5zM396.987 178.028l1.5-1.5 1.5 1.5 1.5-1.5-1.5-1.5 1.5-1.5-1.5-1.5-1.5 1.5-1.5-1.5-1.5 1.5 1.5 1.5-1.5 1.5z" style="fill:#dd8452;stroke:#fff;stroke-width:.75"/></g><path clip-path="url(#p35ae5f9472)" d="M73.833 53.568 90.92 186.624l17.087-21.773 17.087 15.728 17.087-9.762 17.087 6.036 17.087-3.685 17.087 2.294 17.087-1.402 17.087.856 17.088-.511 17.087.349 17.087-.264 17.087.127 17.087-.054 17.087.044 17.087-.066 17.087.116 17.087-.097 17.087.036" style="fill:none;stroke:#4c72b0;stroke-linecap:round;stroke-width:1.5" id="line2d_18"/><path clip-path="url(#p35ae5f9472)" d="M73.833 295.488 90.92 77.76l17.087 157.279 17.087-97.62 17.087 60.358 17.087-36.845 17.087 22.934 17.087-14.02 17.087 8.566 17.087-5.115 17.088 3.49 17.087-2.637 17.087 1.264 17.087-.54 17.087.446 17.087-.662 17.087 1.158 17.087-.966 17.087.358 17.087-.18" style="fill:none;stroke:#dd8452;stroke-dasharray:6,2.25;stroke-dashoffset:0;stroke-width:1.5" id="line2d_19"/><path d="M57.6 307.584V41.472" style="fill:none;stroke:#fff;stroke-linecap:square;stroke-linejoin:miter;stroke-width:1.25" id="patch_3"/><path d="M414.72 307.584V41.472" style="fill:none;stroke:#fff;stroke-linecap:square;stroke-linejoin:miter;stroke-width:1.25" id="patch_4"/><path d="M57.6 307.584h357.12" style="fill:none;stroke:#fff;stroke-linecap:square;stroke-linejoin:miter;stroke-width:1.25" id="patch_5"/><path d="M57.6 41.472h357.12" style="fill:none;stroke:#fff;stroke-linecap:square;stroke-linejoin:miter;stroke-width:1.25" id="patch_6"/><g style="fill:#262626" transform="matrix(.12 0 0 -.12 197.48 35.472)" id="text_20"><defs><path d="m6.203-19.969-.984 8.25q2.89-.781 5.031-.781 2.938 0 4.688.984 1.765.97 2.89 2.72.828 1.327 2.688 6.546.234.734.78 2.156L1.61 51.86h9.47l10.796-30.03q2.094-5.72 3.766-12.017 1.515 6.063 3.609 11.813l11.078 30.234h8.797L29.391-.875q-3.172-8.547-4.922-11.766-2.344-4.359-5.375-6.375-3.032-2.03-7.235-2.03-2.53 0-5.656 1.077z" id="ArialMT-121"/></defs><use xlink:href="#ArialMT-83"/><use x="66.699" xlink:href="#ArialMT-121"/><use x="116.699" xlink:href="#ArialMT-115"/><use x="166.699" xlink:href="#ArialMT-116"/><use x="194.482" xlink:href="#ArialMT-101"/><use x="250.098" xlink:href="#ArialMT-109"/><use x="333.398" xlink:href="#ArialMT-32"/><use x="361.182" xlink:href="#ArialMT-83"/><use x="427.881" xlink:href="#ArialMT-116"/><use x="455.664" xlink:href="#ArialMT-97"/><use x="511.279" xlink:href="#ArialMT-116"/><use x="539.063" xlink:href="#ArialMT-101"/><use x="594.678" xlink:href="#ArialMT-115"/></g><g id="legend_1"><path d="M340.02 81.392h67q2.2 0 2.2-2.2v-30.02q0-2.2-2.2-2.2h-67q-2.2 0-2.2 2.2v30.02q0 2.2 2.2 2.2z" style="fill:#eaeaf2;opacity:.8;stroke:#ccc;stroke-linejoin:miter" id="patch_7"/><path d="M342.22 55.396h22" style="fill:none;stroke:#4c72b0;stroke-linecap:round;stroke-width:1.5" id="line2d_22"/><g style="fill:#262626" transform="matrix(.11 0 0 -.11 373.02 59.246)" id="text_21"><use xlink:href="#ArialMT-83"/><use x="66.699" xlink:href="#ArialMT-116"/><use x="94.482" xlink:href="#ArialMT-97"/><use x="150.098" xlink:href="#ArialMT-116"/><use x="177.881" xlink:href="#ArialMT-101"/><use x="233.496" xlink:href="#ArialMT-49"/></g><path d="M342.22 70.955h22" style="fill:none;stroke:#dd8452;stroke-dasharray:6,2.25;stroke-dashoffset:0;stroke-width:1.5" id="line2d_24"/><g style="fill:#262626" transform="matrix(.11 0 0 -.11 373.02 74.805)" id="text_22"><use xlink:href="#ArialMT-83"/><use x="66.699" xlink:href="#ArialMT-116"/><use x="94.482" xlink:href="#ArialMT-97"/><use x="150.098" xlink:href="#ArialMT-116"/><use x="177.881" xlink:href="#ArialMT-101"/><use x="233.496" xlink:href="#ArialMT-50"/></g></g></g></g><defs><clipPath id="p35ae5f9472"><path d="M57.6 41.472h357.12v266.112H57.6z"/></clipPath></defs></svg>