<?xml version="1.0" encoding="utf-8" standalone="no"?>
<!DOCTYPE svg PUBLIC "-//W3C//DTD SVG 1.1//EN"
  "http://www.w3.org/Graphics/SVG/1.1/DTD/svg11.dtd">
<!-- Created with matplotlib (https://matplotlib.org/) -->
<svg height="345.6pt" version="1.1" viewBox="0 0 460.8 345.6" width="460.8pt" xmlns="http://www.w3.org/2000/svg" xmlns:xlink="http://www.w3.org/1999/xlink">
 <metadata>
  <rdf:RDF xmlns:cc="http://creativecommons.org/ns#" xmlns:dc="http://purl.org/dc/elements/1.1/" xmlns:rdf="http://www.w3.org/1999/02/22-rdf-syntax-ns#">
   <cc:Work>
    <dc:type rdf:resource="http://purl.org/dc/dcmitype/StillImage"/>
    <dc:date>2020-08-26T20:10:40.795366</dc:date>
    <dc:format>image/svg+xml</dc:format>
    <dc:creator>
     <cc:Agent>
      <dc:title>Matplotlib v3.3.1, https://matplotlib.org/</dc:title>
     </cc:Agent>
    </dc:creator>
   </cc:Work>
  </rdf:RDF>
 </metadata>
 <defs>
  <style type="text/css">*{stroke-linecap:butt;stroke-linejoin:round;}</style>
 </defs>
 <g id="figure_1">
  <g id="patch_1">
   <path d="M 0 345.6 
L 460.8 345.6 
L 460.8 0 
L 0 0 
z
" style="fill:#ffffff;"/>
  </g>
  <g id="axes_1">
   <g id="patch_2">
    <path d="M 57.6 307.584 
L 414.72 307.584 
L 414.72 41.472 
L 57.6 41.472 
z
" style="fill:#eaeaf2;"/>
   </g>
   <g id="matplotlib.axis_1">
    <g id="xtick_1">
     <g id="line2d_1">
      <path clip-path="url(#p35ae5f9472)" d="M 73.832727 307.584 
L 73.832727 41.472 
" style="fill:none;stroke:#ffffff;stroke-linecap:round;"/>
     </g>
     <g id="text_1">
      <!-- 0.0 -->
      <g style="fill:#262626;" transform="translate(66.187727 324.957594)scale(0.11 -0.11)">
       <defs>
        <path d="M 4.15625 35.296875 
Q 4.15625 48 6.765625 55.734375 
Q 9.375 63.484375 14.515625 67.671875 
Q 19.671875 71.875 27.484375 71.875 
Q 33.25 71.875 37.59375 69.546875 
Q 41.9375 67.234375 44.765625 62.859375 
Q 47.609375 58.5 49.21875 52.21875 
Q 50.828125 45.953125 50.828125 35.296875 
Q 50.828125 22.703125 48.234375 14.96875 
Q 45.65625 7.234375 40.5 3 
Q 35.359375 -1.21875 27.484375 -1.21875 
Q 17.140625 -1.21875 11.234375 6.203125 
Q 4.15625 15.140625 4.15625 35.296875 
z
M 13.1875 35.296875 
Q 13.1875 17.671875 17.3125 11.828125 
Q 21.4375 6 27.484375 6 
Q 33.546875 6 37.671875 11.859375 
Q 41.796875 17.71875 41.796875 35.296875 
Q 41.796875 52.984375 37.671875 58.78125 
Q 33.546875 64.59375 27.390625 64.59375 
Q 21.34375 64.59375 17.71875 59.46875 
Q 13.1875 52.9375 13.1875 35.296875 
z
" id="ArialMT-48"/>
        <path d="M 9.078125 0 
L 9.078125 10.015625 
L 19.09375 10.015625 
L 19.09375 0 
z
" id="ArialMT-46"/>
       </defs>
       <use xlink:href="#ArialMT-48"/>
       <use x="55.615234" xlink:href="#ArialMT-46"/>
       <use x="83.398438" xlink:href="#ArialMT-48"/>
      </g>
     </g>
    </g>
    <g id="xtick_2">
     <g id="line2d_2">
      <path clip-path="url(#p35ae5f9472)" d="M 116.550431 307.584 
L 116.550431 41.472 
" style="fill:none;stroke:#ffffff;stroke-linecap:round;"/>
     </g>
     <g id="text_2">
      <!-- 2.5 -->
      <g style="fill:#262626;" transform="translate(108.905431 324.957594)scale(0.11 -0.11)">
       <defs>
        <path d="M 50.34375 8.453125 
L 50.34375 0 
L 3.03125 0 
Q 2.9375 3.171875 4.046875 6.109375 
Q 5.859375 10.9375 9.828125 15.625 
Q 13.8125 20.3125 21.34375 26.46875 
Q 33.015625 36.03125 37.109375 41.625 
Q 41.21875 47.21875 41.21875 52.203125 
Q 41.21875 57.421875 37.46875 61 
Q 33.734375 64.59375 27.734375 64.59375 
Q 21.390625 64.59375 17.578125 60.78125 
Q 13.765625 56.984375 13.71875 50.25 
L 4.6875 51.171875 
Q 5.609375 61.28125 11.65625 66.578125 
Q 17.71875 71.875 27.9375 71.875 
Q 38.234375 71.875 44.234375 66.15625 
Q 50.25 60.453125 50.25 52 
Q 50.25 47.703125 48.484375 43.546875 
Q 46.734375 39.40625 42.65625 34.8125 
Q 38.578125 30.21875 29.109375 22.21875 
Q 21.1875 15.578125 18.9375 13.203125 
Q 16.703125 10.84375 15.234375 8.453125 
z
" id="ArialMT-50"/>
        <path d="M 4.15625 18.75 
L 13.375 19.53125 
Q 14.40625 12.796875 18.140625 9.390625 
Q 21.875 6 27.15625 6 
Q 33.5 6 37.890625 10.78125 
Q 42.28125 15.578125 42.28125 23.484375 
Q 42.28125 31 38.0625 35.34375 
Q 33.84375 39.703125 27 39.703125 
Q 22.75 39.703125 19.328125 37.765625 
Q 15.921875 35.84375 13.96875 32.765625 
L 5.71875 33.84375 
L 12.640625 70.609375 
L 48.25 70.609375 
L 48.25 62.203125 
L 19.671875 62.203125 
L 15.828125 42.96875 
Q 22.265625 47.46875 29.34375 47.46875 
Q 38.71875 47.46875 45.15625 40.96875 
Q 51.609375 34.46875 51.609375 24.265625 
Q 51.609375 14.546875 45.953125 7.46875 
Q 39.0625 -1.21875 27.15625 -1.21875 
Q 17.390625 -1.21875 11.203125 4.25 
Q 5.03125 9.71875 4.15625 18.75 
z
" id="ArialMT-53"/>
       </defs>
       <use xlink:href="#ArialMT-50"/>
       <use x="55.615234" xlink:href="#ArialMT-46"/>
       <use x="83.398438" xlink:href="#ArialMT-53"/>
      </g>
     </g>
    </g>
    <g id="xtick_3">
     <g id="line2d_3">
      <path clip-path="url(#p35ae5f9472)" d="M 159.268134 307.584 
L 159.268134 41.472 
" style="fill:none;stroke:#ffffff;stroke-linecap:round;"/>
     </g>
     <g id="text_3">
      <!-- 5.0 -->
      <g style="fill:#262626;" transform="translate(151.623134 324.957594)scale(0.11 -0.11)">
       <use xlink:href="#ArialMT-53"/>
       <use x="55.615234" xlink:href="#ArialMT-46"/>
       <use x="83.398438" xlink:href="#ArialMT-48"/>
      </g>
     </g>
    </g>
    <g id="xtick_4">
     <g id="line2d_4">
      <path clip-path="url(#p35ae5f9472)" d="M 201.985837 307.584 
L 201.985837 41.472 
" style="fill:none;stroke:#ffffff;stroke-linecap:round;"/>
     </g>
     <g id="text_4">
      <!-- 7.5 -->
      <g style="fill:#262626;" transform="translate(194.340837 324.957594)scale(0.11 -0.11)">
       <defs>
        <path d="M 4.734375 62.203125 
L 4.734375 70.65625 
L 51.078125 70.65625 
L 51.078125 63.8125 
Q 44.234375 56.546875 37.515625 44.484375 
Q 30.8125 32.421875 27.15625 19.671875 
Q 24.515625 10.6875 23.78125 0 
L 14.75 0 
Q 14.890625 8.453125 18.0625 20.40625 
Q 21.234375 32.375 27.171875 43.484375 
Q 33.109375 54.59375 39.796875 62.203125 
z
" id="ArialMT-55"/>
       </defs>
       <use xlink:href="#ArialMT-55"/>
       <use x="55.615234" xlink:href="#ArialMT-46"/>
       <use x="83.398438" xlink:href="#ArialMT-53"/>
      </g>
     </g>
    </g>
    <g id="xtick_5">
     <g id="line2d_5">
      <path clip-path="url(#p35ae5f9472)" d="M 244.703541 307.584 
L 244.703541 41.472 
" style="fill:none;stroke:#ffffff;stroke-linecap:round;"/>
     </g>
     <g id="text_5">
      <!-- 10.0 -->
      <g style="fill:#262626;" transform="translate(234.000025 324.957594)scale(0.11 -0.11)">
       <defs>
        <path d="M 37.25 0 
L 28.46875 0 
L 28.46875 56 
Q 25.296875 52.984375 20.140625 49.953125 
Q 14.984375 46.921875 10.890625 45.40625 
L 10.890625 53.90625 
Q 18.265625 57.375 23.78125 62.296875 
Q 29.296875 67.234375 31.59375 71.875 
L 37.25 71.875 
z
" id="ArialMT-49"/>
       </defs>
       <use xlink:href="#ArialMT-49"/>
       <use x="55.615234" xlink:href="#ArialMT-48"/>
       <use x="111.230469" xlink:href="#ArialMT-46"/>
       <use x="139.013672" xlink:href="#ArialMT-48"/>
      </g>
     </g>
    </g>
    <g id="xtick_6">
     <g id="line2d_6">
      <path clip-path="url(#p35ae5f9472)" d="M 287.421244 307.584 
L 287.421244 41.472 
" style="fill:none;stroke:#ffffff;stroke-linecap:round;"/>
     </g>
     <g id="text_6">
      <!-- 12.5 -->
      <g style="fill:#262626;" transform="translate(276.717728 324.957594)scale(0.11 -0.11)">
       <use xlink:href="#ArialMT-49"/>
       <use x="55.615234" xlink:href="#ArialMT-50"/>
       <use x="111.230469" xlink:href="#ArialMT-46"/>
       <use x="139.013672" xlink:href="#ArialMT-53"/>
      </g>
     </g>
    </g>
    <g id="xtick_7">
     <g id="line2d_7">
      <path clip-path="url(#p35ae5f9472)" d="M 330.138947 307.584 
L 330.138947 41.472 
" style="fill:none;stroke:#ffffff;stroke-linecap:round;"/>
     </g>
     <g id="text_7">
      <!-- 15.0 -->
      <g style="fill:#262626;" transform="translate(319.435432 324.957594)scale(0.11 -0.11)">
       <use xlink:href="#ArialMT-49"/>
       <use x="55.615234" xlink:href="#ArialMT-53"/>
       <use x="111.230469" xlink:href="#ArialMT-46"/>
       <use x="139.013672" xlink:href="#ArialMT-48"/>
      </g>
     </g>
    </g>
    <g id="xtick_8">
     <g id="line2d_8">
      <path clip-path="url(#p35ae5f9472)" d="M 372.856651 307.584 
L 372.856651 41.472 
" style="fill:none;stroke:#ffffff;stroke-linecap:round;"/>
     </g>
     <g id="text_8">
      <!-- 17.5 -->
      <g style="fill:#262626;" transform="translate(362.153135 324.957594)scale(0.11 -0.11)">
       <use xlink:href="#ArialMT-49"/>
       <use x="55.615234" xlink:href="#ArialMT-55"/>
       <use x="111.230469" xlink:href="#ArialMT-46"/>
       <use x="139.013672" xlink:href="#ArialMT-53"/>
      </g>
     </g>
    </g>
    <g id="text_9">
     <!-- TimeSteps -->
     <g style="fill:#262626;" transform="translate(207.710625 339.879469)scale(0.12 -0.12)">
      <defs>
       <path d="M 25.921875 0 
L 25.921875 63.140625 
L 2.34375 63.140625 
L 2.34375 71.578125 
L 59.078125 71.578125 
L 59.078125 63.140625 
L 35.40625 63.140625 
L 35.40625 0 
z
" id="ArialMT-84"/>
       <path d="M 6.640625 61.46875 
L 6.640625 71.578125 
L 15.4375 71.578125 
L 15.4375 61.46875 
z
M 6.640625 0 
L 6.640625 51.859375 
L 15.4375 51.859375 
L 15.4375 0 
z
" id="ArialMT-105"/>
       <path d="M 6.59375 0 
L 6.59375 51.859375 
L 14.453125 51.859375 
L 14.453125 44.578125 
Q 16.890625 48.390625 20.9375 50.703125 
Q 25 53.03125 30.171875 53.03125 
Q 35.9375 53.03125 39.625 50.640625 
Q 43.3125 48.25 44.828125 43.953125 
Q 50.984375 53.03125 60.84375 53.03125 
Q 68.5625 53.03125 72.703125 48.75 
Q 76.859375 44.484375 76.859375 35.59375 
L 76.859375 0 
L 68.109375 0 
L 68.109375 32.671875 
Q 68.109375 37.9375 67.25 40.25 
Q 66.40625 42.578125 64.15625 43.984375 
Q 61.921875 45.40625 58.890625 45.40625 
Q 53.421875 45.40625 49.796875 41.765625 
Q 46.1875 38.140625 46.1875 30.125 
L 46.1875 0 
L 37.40625 0 
L 37.40625 33.6875 
Q 37.40625 39.546875 35.25 42.46875 
Q 33.109375 45.40625 28.21875 45.40625 
Q 24.515625 45.40625 21.359375 43.453125 
Q 18.21875 41.5 16.796875 37.734375 
Q 15.375 33.984375 15.375 26.90625 
L 15.375 0 
z
" id="ArialMT-109"/>
       <path d="M 42.09375 16.703125 
L 51.171875 15.578125 
Q 49.03125 7.625 43.21875 3.21875 
Q 37.40625 -1.171875 28.375 -1.171875 
Q 17 -1.171875 10.328125 5.828125 
Q 3.65625 12.84375 3.65625 25.484375 
Q 3.65625 38.578125 10.390625 45.796875 
Q 17.140625 53.03125 27.875 53.03125 
Q 38.28125 53.03125 44.875 45.953125 
Q 51.46875 38.875 51.46875 26.03125 
Q 51.46875 25.25 51.421875 23.6875 
L 12.75 23.6875 
Q 13.234375 15.140625 17.578125 10.59375 
Q 21.921875 6.0625 28.421875 6.0625 
Q 33.25 6.0625 36.671875 8.59375 
Q 40.09375 11.140625 42.09375 16.703125 
z
M 13.234375 30.90625 
L 42.1875 30.90625 
Q 41.609375 37.453125 38.875 40.71875 
Q 34.671875 45.796875 27.984375 45.796875 
Q 21.921875 45.796875 17.796875 41.75 
Q 13.671875 37.703125 13.234375 30.90625 
z
" id="ArialMT-101"/>
       <path d="M 4.5 23 
L 13.421875 23.78125 
Q 14.0625 18.40625 16.375 14.96875 
Q 18.703125 11.53125 23.578125 9.40625 
Q 28.46875 7.28125 34.578125 7.28125 
Q 39.984375 7.28125 44.140625 8.890625 
Q 48.296875 10.5 50.3125 13.296875 
Q 52.34375 16.109375 52.34375 19.4375 
Q 52.34375 22.796875 50.390625 25.3125 
Q 48.4375 27.828125 43.953125 29.546875 
Q 41.0625 30.671875 31.203125 33.03125 
Q 21.34375 35.40625 17.390625 37.5 
Q 12.25 40.1875 9.734375 44.15625 
Q 7.234375 48.140625 7.234375 53.078125 
Q 7.234375 58.5 10.296875 63.203125 
Q 13.375 67.921875 19.28125 70.359375 
Q 25.203125 72.796875 32.421875 72.796875 
Q 40.375 72.796875 46.453125 70.234375 
Q 52.546875 67.671875 55.8125 62.6875 
Q 59.078125 57.71875 59.328125 51.421875 
L 50.25 50.734375 
Q 49.515625 57.515625 45.28125 60.984375 
Q 41.0625 64.453125 32.8125 64.453125 
Q 24.21875 64.453125 20.28125 61.296875 
Q 16.359375 58.15625 16.359375 53.71875 
Q 16.359375 49.859375 19.140625 47.359375 
Q 21.875 44.875 33.421875 42.265625 
Q 44.96875 39.65625 49.265625 37.703125 
Q 55.515625 34.8125 58.484375 30.390625 
Q 61.46875 25.984375 61.46875 20.21875 
Q 61.46875 14.5 58.203125 9.4375 
Q 54.9375 4.390625 48.796875 1.578125 
Q 42.671875 -1.21875 35.015625 -1.21875 
Q 25.296875 -1.21875 18.71875 1.609375 
Q 12.15625 4.4375 8.421875 10.125 
Q 4.6875 15.828125 4.5 23 
z
" id="ArialMT-83"/>
       <path d="M 25.78125 7.859375 
L 27.046875 0.09375 
Q 23.34375 -0.6875 20.40625 -0.6875 
Q 15.625 -0.6875 12.984375 0.828125 
Q 10.359375 2.34375 9.28125 4.8125 
Q 8.203125 7.28125 8.203125 15.1875 
L 8.203125 45.015625 
L 1.765625 45.015625 
L 1.765625 51.859375 
L 8.203125 51.859375 
L 8.203125 64.703125 
L 16.9375 69.96875 
L 16.9375 51.859375 
L 25.78125 51.859375 
L 25.78125 45.015625 
L 16.9375 45.015625 
L 16.9375 14.703125 
Q 16.9375 10.9375 17.40625 9.859375 
Q 17.875 8.796875 18.921875 8.15625 
Q 19.96875 7.515625 21.921875 7.515625 
Q 23.390625 7.515625 25.78125 7.859375 
z
" id="ArialMT-116"/>
       <path d="M 6.59375 -19.875 
L 6.59375 51.859375 
L 14.59375 51.859375 
L 14.59375 45.125 
Q 17.4375 49.078125 21 51.046875 
Q 24.5625 53.03125 29.640625 53.03125 
Q 36.28125 53.03125 41.359375 49.609375 
Q 46.4375 46.1875 49.015625 39.953125 
Q 51.609375 33.734375 51.609375 26.3125 
Q 51.609375 18.359375 48.75 11.984375 
Q 45.90625 5.609375 40.453125 2.21875 
Q 35.015625 -1.171875 29 -1.171875 
Q 24.609375 -1.171875 21.109375 0.6875 
Q 17.625 2.546875 15.375 5.375 
L 15.375 -19.875 
z
M 14.546875 25.640625 
Q 14.546875 15.625 18.59375 10.84375 
Q 22.65625 6.0625 28.421875 6.0625 
Q 34.28125 6.0625 38.453125 11.015625 
Q 42.625 15.96875 42.625 26.375 
Q 42.625 36.28125 38.546875 41.203125 
Q 34.46875 46.140625 28.8125 46.140625 
Q 23.1875 46.140625 18.859375 40.890625 
Q 14.546875 35.640625 14.546875 25.640625 
z
" id="ArialMT-112"/>
       <path d="M 3.078125 15.484375 
L 11.765625 16.84375 
Q 12.5 11.625 15.84375 8.84375 
Q 19.1875 6.0625 25.203125 6.0625 
Q 31.25 6.0625 34.171875 8.515625 
Q 37.109375 10.984375 37.109375 14.3125 
Q 37.109375 17.28125 34.515625 19 
Q 32.71875 20.171875 25.53125 21.96875 
Q 15.875 24.421875 12.140625 26.203125 
Q 8.40625 27.984375 6.46875 31.125 
Q 4.546875 34.28125 4.546875 38.09375 
Q 4.546875 41.546875 6.125 44.5 
Q 7.71875 47.46875 10.453125 49.421875 
Q 12.5 50.921875 16.03125 51.96875 
Q 19.578125 53.03125 23.640625 53.03125 
Q 29.734375 53.03125 34.34375 51.265625 
Q 38.96875 49.515625 41.15625 46.5 
Q 43.359375 43.5 44.1875 38.484375 
L 35.59375 37.3125 
Q 35.015625 41.3125 32.203125 43.546875 
Q 29.390625 45.796875 24.265625 45.796875 
Q 18.21875 45.796875 15.625 43.796875 
Q 13.03125 41.796875 13.03125 39.109375 
Q 13.03125 37.40625 14.109375 36.03125 
Q 15.1875 34.625 17.484375 33.6875 
Q 18.796875 33.203125 25.25 31.453125 
Q 34.578125 28.953125 38.25 27.359375 
Q 41.9375 25.78125 44.03125 22.75 
Q 46.140625 19.734375 46.140625 15.234375 
Q 46.140625 10.84375 43.578125 6.953125 
Q 41.015625 3.078125 36.171875 0.953125 
Q 31.34375 -1.171875 25.25 -1.171875 
Q 15.140625 -1.171875 9.84375 3.03125 
Q 4.546875 7.234375 3.078125 15.484375 
z
" id="ArialMT-115"/>
      </defs>
      <use xlink:href="#ArialMT-84"/>
      <use x="57.333984" xlink:href="#ArialMT-105"/>
      <use x="79.550781" xlink:href="#ArialMT-109"/>
      <use x="162.851562" xlink:href="#ArialMT-101"/>
      <use x="218.466797" xlink:href="#ArialMT-83"/>
      <use x="285.166016" xlink:href="#ArialMT-116"/>
      <use x="312.949219" xlink:href="#ArialMT-101"/>
      <use x="368.564453" xlink:href="#ArialMT-112"/>
      <use x="424.179688" xlink:href="#ArialMT-115"/>
     </g>
    </g>
   </g>
   <g id="matplotlib.axis_2">
    <g id="ytick_1">
     <g id="line2d_9">
      <path clip-path="url(#p35ae5f9472)" d="M 57.6 295.488 
L 414.72 295.488 
" style="fill:none;stroke:#ffffff;stroke-linecap:round;"/>
     </g>
     <g id="text_10">
      <!-- −1.00 -->
      <g style="fill:#262626;" transform="translate(20.268281 299.424797)scale(0.11 -0.11)">
       <defs>
        <path d="M 52.828125 31.203125 
L 5.5625 31.203125 
L 5.5625 39.40625 
L 52.828125 39.40625 
z
" id="ArialMT-8722"/>
       </defs>
       <use xlink:href="#ArialMT-8722"/>
       <use x="58.398438" xlink:href="#ArialMT-49"/>
       <use x="114.013672" xlink:href="#ArialMT-46"/>
       <use x="141.796875" xlink:href="#ArialMT-48"/>
       <use x="197.412109" xlink:href="#ArialMT-48"/>
      </g>
     </g>
    </g>
    <g id="ytick_2">
     <g id="line2d_10">
      <path clip-path="url(#p35ae5f9472)" d="M 57.6 265.248 
L 414.72 265.248 
" style="fill:none;stroke:#ffffff;stroke-linecap:round;"/>
     </g>
     <g id="text_11">
      <!-- −0.75 -->
      <g style="fill:#262626;" transform="translate(20.268281 269.184797)scale(0.11 -0.11)">
       <use xlink:href="#ArialMT-8722"/>
       <use x="58.398438" xlink:href="#ArialMT-48"/>
       <use x="114.013672" xlink:href="#ArialMT-46"/>
       <use x="141.796875" xlink:href="#ArialMT-55"/>
       <use x="197.412109" xlink:href="#ArialMT-53"/>
      </g>
     </g>
    </g>
    <g id="ytick_3">
     <g id="line2d_11">
      <path clip-path="url(#p35ae5f9472)" d="M 57.6 235.008 
L 414.72 235.008 
" style="fill:none;stroke:#ffffff;stroke-linecap:round;"/>
     </g>
     <g id="text_12">
      <!-- −0.50 -->
      <g style="fill:#262626;" transform="translate(20.268281 238.944797)scale(0.11 -0.11)">
       <use xlink:href="#ArialMT-8722"/>
       <use x="58.398438" xlink:href="#ArialMT-48"/>
       <use x="114.013672" xlink:href="#ArialMT-46"/>
       <use x="141.796875" xlink:href="#ArialMT-53"/>
       <use x="197.412109" xlink:href="#ArialMT-48"/>
      </g>
     </g>
    </g>
    <g id="ytick_4">
     <g id="line2d_12">
      <path clip-path="url(#p35ae5f9472)" d="M 57.6 204.768 
L 414.72 204.768 
" style="fill:none;stroke:#ffffff;stroke-linecap:round;"/>
     </g>
     <g id="text_13">
      <!-- −0.25 -->
      <g style="fill:#262626;" transform="translate(20.268281 208.704797)scale(0.11 -0.11)">
       <use xlink:href="#ArialMT-8722"/>
       <use x="58.398438" xlink:href="#ArialMT-48"/>
       <use x="114.013672" xlink:href="#ArialMT-46"/>
       <use x="141.796875" xlink:href="#ArialMT-50"/>
       <use x="197.412109" xlink:href="#ArialMT-53"/>
      </g>
     </g>
    </g>
    <g id="ytick_5">
     <g id="line2d_13">
      <path clip-path="url(#p35ae5f9472)" d="M 57.6 174.528 
L 414.72 174.528 
" style="fill:none;stroke:#ffffff;stroke-linecap:round;"/>
     </g>
     <g id="text_14">
      <!-- 0.00 -->
      <g style="fill:#262626;" transform="translate(26.692969 178.464797)scale(0.11 -0.11)">
       <use xlink:href="#ArialMT-48"/>
       <use x="55.615234" xlink:href="#ArialMT-46"/>
       <use x="83.398438" xlink:href="#ArialMT-48"/>
       <use x="139.013672" xlink:href="#ArialMT-48"/>
      </g>
     </g>
    </g>
    <g id="ytick_6">
     <g id="line2d_14">
      <path clip-path="url(#p35ae5f9472)" d="M 57.6 144.288 
L 414.72 144.288 
" style="fill:none;stroke:#ffffff;stroke-linecap:round;"/>
     </g>
     <g id="text_15">
      <!-- 0.25 -->
      <g style="fill:#262626;" transform="translate(26.692969 148.224797)scale(0.11 -0.11)">
       <use xlink:href="#ArialMT-48"/>
       <use x="55.615234" xlink:href="#ArialMT-46"/>
       <use x="83.398438" xlink:href="#ArialMT-50"/>
       <use x="139.013672" xlink:href="#ArialMT-53"/>
      </g>
     </g>
    </g>
    <g id="ytick_7">
     <g id="line2d_15">
      <path clip-path="url(#p35ae5f9472)" d="M 57.6 114.048 
L 414.72 114.048 
" style="fill:none;stroke:#ffffff;stroke-linecap:round;"/>
     </g>
     <g id="text_16">
      <!-- 0.50 -->
      <g style="fill:#262626;" transform="translate(26.692969 117.984797)scale(0.11 -0.11)">
       <use xlink:href="#ArialMT-48"/>
       <use x="55.615234" xlink:href="#ArialMT-46"/>
       <use x="83.398438" xlink:href="#ArialMT-53"/>
       <use x="139.013672" xlink:href="#ArialMT-48"/>
      </g>
     </g>
    </g>
    <g id="ytick_8">
     <g id="line2d_16">
      <path clip-path="url(#p35ae5f9472)" d="M 57.6 83.808 
L 414.72 83.808 
" style="fill:none;stroke:#ffffff;stroke-linecap:round;"/>
     </g>
     <g id="text_17">
      <!-- 0.75 -->
      <g style="fill:#262626;" transform="translate(26.692969 87.744797)scale(0.11 -0.11)">
       <use xlink:href="#ArialMT-48"/>
       <use x="55.615234" xlink:href="#ArialMT-46"/>
       <use x="83.398438" xlink:href="#ArialMT-55"/>
       <use x="139.013672" xlink:href="#ArialMT-53"/>
      </g>
     </g>
    </g>
    <g id="ytick_9">
     <g id="line2d_17">
      <path clip-path="url(#p35ae5f9472)" d="M 57.6 53.568 
L 414.72 53.568 
" style="fill:none;stroke:#ffffff;stroke-linecap:round;"/>
     </g>
     <g id="text_18">
      <!-- 1.00 -->
      <g style="fill:#262626;" transform="translate(26.692969 57.504797)scale(0.11 -0.11)">
       <use xlink:href="#ArialMT-49"/>
       <use x="55.615234" xlink:href="#ArialMT-46"/>
       <use x="83.398438" xlink:href="#ArialMT-48"/>
       <use x="139.013672" xlink:href="#ArialMT-48"/>
      </g>
     </g>
    </g>
    <g id="text_19">
     <!-- States -->
     <g style="fill:#262626;" transform="translate(13.883281 191.537062)rotate(-90)scale(0.12 -0.12)">
      <defs>
       <path d="M 40.4375 6.390625 
Q 35.546875 2.25 31.03125 0.53125 
Q 26.515625 -1.171875 21.34375 -1.171875 
Q 12.796875 -1.171875 8.203125 3 
Q 3.609375 7.171875 3.609375 13.671875 
Q 3.609375 17.484375 5.34375 20.625 
Q 7.078125 23.78125 9.890625 25.6875 
Q 12.703125 27.59375 16.21875 28.5625 
Q 18.796875 29.25 24.03125 29.890625 
Q 34.671875 31.15625 39.703125 32.90625 
Q 39.75 34.71875 39.75 35.203125 
Q 39.75 40.578125 37.25 42.78125 
Q 33.890625 45.75 27.25 45.75 
Q 21.046875 45.75 18.09375 43.578125 
Q 15.140625 41.40625 13.71875 35.890625 
L 5.125 37.0625 
Q 6.296875 42.578125 8.984375 45.96875 
Q 11.671875 49.359375 16.75 51.1875 
Q 21.828125 53.03125 28.515625 53.03125 
Q 35.15625 53.03125 39.296875 51.46875 
Q 43.453125 49.90625 45.40625 47.53125 
Q 47.359375 45.171875 48.140625 41.546875 
Q 48.578125 39.3125 48.578125 33.453125 
L 48.578125 21.734375 
Q 48.578125 9.46875 49.140625 6.21875 
Q 49.703125 2.984375 51.375 0 
L 42.1875 0 
Q 40.828125 2.734375 40.4375 6.390625 
z
M 39.703125 26.03125 
Q 34.90625 24.078125 25.34375 22.703125 
Q 19.921875 21.921875 17.671875 20.9375 
Q 15.4375 19.96875 14.203125 18.09375 
Q 12.984375 16.21875 12.984375 13.921875 
Q 12.984375 10.40625 15.640625 8.0625 
Q 18.3125 5.71875 23.4375 5.71875 
Q 28.515625 5.71875 32.46875 7.9375 
Q 36.421875 10.15625 38.28125 14.015625 
Q 39.703125 17 39.703125 22.796875 
z
" id="ArialMT-97"/>
      </defs>
      <use xlink:href="#ArialMT-83"/>
      <use x="66.699219" xlink:href="#ArialMT-116"/>
      <use x="94.482422" xlink:href="#ArialMT-97"/>
      <use x="150.097656" xlink:href="#ArialMT-116"/>
      <use x="177.880859" xlink:href="#ArialMT-101"/>
      <use x="233.496094" xlink:href="#ArialMT-115"/>
     </g>
    </g>
   </g>
   <g id="PathCollection_1">
    <path clip-path="url(#p35ae5f9472)" d="M 73.832727 56.568 
C 74.628337 56.568 75.391467 56.251901 75.954048 55.68932 
C 76.516628 55.12674 76.832727 54.363609 76.832727 53.568 
C 76.832727 52.772391 76.516628 52.00926 75.954048 51.44668 
C 75.391467 50.884099 74.628337 50.568 73.832727 50.568 
C 73.037118 50.568 72.273988 50.884099 71.711407 51.44668 
C 71.148826 52.00926 70.832727 52.772391 70.832727 53.568 
C 70.832727 54.363609 71.148826 55.12674 71.711407 55.68932 
C 72.273988 56.251901 73.037118 56.568 73.832727 56.568 
z
" style="fill:#4c72b0;stroke:#ffffff;stroke-width:0.75;"/>
    <path clip-path="url(#p35ae5f9472)" d="M 90.919809 189.624 
C 91.715418 189.624 92.478548 189.307901 93.041129 188.74532 
C 93.60371 188.18274 93.919809 187.419609 93.919809 186.624 
C 93.919809 185.828391 93.60371 185.06526 93.041129 184.50268 
C 92.478548 183.940099 91.715418 183.624 90.919809 183.624 
C 90.124199 183.624 89.361069 183.940099 88.798488 184.50268 
C 88.235908 185.06526 87.919809 185.828391 87.919809 186.624 
C 87.919809 187.419609 88.235908 188.18274 88.798488 188.74532 
C 89.361069 189.307901 90.124199 189.624 90.919809 189.624 
z
" style="fill:#4c72b0;stroke:#ffffff;stroke-width:0.75;"/>
    <path clip-path="url(#p35ae5f9472)" d="M 108.00689 167.8512 
C 108.802499 167.8512 109.56563 167.535101 110.12821 166.97252 
C 110.690791 166.40994 111.00689 165.646809 111.00689 164.8512 
C 111.00689 164.055591 110.690791 163.29246 110.12821 162.72988 
C 109.56563 162.167299 108.802499 161.8512 108.00689 161.8512 
C 107.211281 161.8512 106.44815 162.167299 105.88557 162.72988 
C 105.322989 163.29246 105.00689 164.055591 105.00689 164.8512 
C 105.00689 165.646809 105.322989 166.40994 105.88557 166.97252 
C 106.44815 167.535101 107.211281 167.8512 108.00689 167.8512 
z
" style="fill:#4c72b0;stroke:#ffffff;stroke-width:0.75;"/>
    <path clip-path="url(#p35ae5f9472)" d="M 125.093971 183.579057 
C 125.889581 183.579057 126.652711 183.262958 127.215292 182.700377 
C 127.777872 182.137797 128.093971 181.374666 128.093971 180.579057 
C 128.093971 179.783448 127.777872 179.020318 127.215292 178.457737 
C 126.652711 177.895156 125.889581 177.579057 125.093971 177.579057 
C 124.298362 177.579057 123.535232 177.895156 122.972651 178.457737 
C 122.41007 179.020318 122.093971 179.783448 122.093971 180.579057 
C 122.093971 181.374666 122.41007 182.137797 122.972651 182.700377 
C 123.535232 183.262958 124.298362 183.579057 125.093971 183.579057 
z
" style="fill:#4c72b0;stroke:#ffffff;stroke-width:0.75;"/>
    <path clip-path="url(#p35ae5f9472)" d="M 142.181053 173.817047 
C 142.976662 173.817047 143.739792 173.500948 144.302373 172.938367 
C 144.864954 172.375786 145.181053 171.612656 145.181053 170.817047 
C 145.181053 170.021438 144.864954 169.258307 144.302373 168.695726 
C 143.739792 168.133146 142.976662 167.817047 142.181053 167.817047 
C 141.385443 167.817047 140.622313 168.133146 140.059732 168.695726 
C 139.497152 169.258307 139.181053 170.021438 139.181053 170.817047 
C 139.181053 171.612656 139.497152 172.375786 140.059732 172.938367 
C 140.622313 173.500948 141.385443 173.817047 142.181053 173.817047 
z
" style="fill:#4c72b0;stroke:#ffffff;stroke-width:0.75;"/>
    <path clip-path="url(#p35ae5f9472)" d="M 159.268134 179.85294 
C 160.063743 179.85294 160.826874 179.536841 161.389454 178.97426 
C 161.952035 178.41168 162.268134 177.648549 162.268134 176.85294 
C 162.268134 176.057331 161.952035 175.2942 161.389454 174.73162 
C 160.826874 174.169039 160.063743 173.85294 159.268134 173.85294 
C 158.472525 173.85294 157.709394 174.169039 157.146814 174.73162 
C 156.584233 175.2942 156.268134 176.057331 156.268134 176.85294 
C 156.268134 177.648549 156.584233 178.41168 157.146814 178.97426 
C 157.709394 179.536841 158.472525 179.85294 159.268134 179.85294 
z
" style="fill:#4c72b0;stroke:#ffffff;stroke-width:0.75;"/>
    <path clip-path="url(#p35ae5f9472)" d="M 176.355215 176.168369 
C 177.150825 176.168369 177.913955 175.85227 178.476536 175.28969 
C 179.039116 174.727109 179.355215 173.963978 179.355215 173.168369 
C 179.355215 172.37276 179.039116 171.60963 178.476536 171.047049 
C 177.913955 170.484468 177.150825 170.168369 176.355215 170.168369 
C 175.559606 170.168369 174.796476 170.484468 174.233895 171.047049 
C 173.671314 171.60963 173.355215 172.37276 173.355215 173.168369 
C 173.355215 173.963978 173.671314 174.727109 174.233895 175.28969 
C 174.796476 175.85227 175.559606 176.168369 176.355215 176.168369 
z
" style="fill:#4c72b0;stroke:#ffffff;stroke-width:0.75;"/>
    <path clip-path="url(#p35ae5f9472)" d="M 193.442297 178.461812 
C 194.237906 178.461812 195.001036 178.145713 195.563617 177.583132 
C 196.126198 177.020552 196.442297 176.257421 196.442297 175.461812 
C 196.442297 174.666203 196.126198 173.903072 195.563617 173.340492 
C 195.001036 172.777911 194.237906 172.461812 193.442297 172.461812 
C 192.646687 172.461812 191.883557 172.777911 191.320976 173.340492 
C 190.758396 173.903072 190.442297 174.666203 190.442297 175.461812 
C 190.442297 176.257421 190.758396 177.020552 191.320976 177.583132 
C 191.883557 178.145713 192.646687 178.461812 193.442297 178.461812 
z
" style="fill:#4c72b0;stroke:#ffffff;stroke-width:0.75;"/>
    <path clip-path="url(#p35ae5f9472)" d="M 210.529378 177.059784 
C 211.324987 177.059784 212.088118 176.743685 212.650698 176.181104 
C 213.213279 175.618524 213.529378 174.855393 213.529378 174.059784 
C 213.529378 173.264175 213.213279 172.501044 212.650698 171.938464 
C 212.088118 171.375883 211.324987 171.059784 210.529378 171.059784 
C 209.733769 171.059784 208.970638 171.375883 208.408058 171.938464 
C 207.845477 172.501044 207.529378 173.264175 207.529378 174.059784 
C 207.529378 174.855393 207.845477 175.618524 208.408058 176.181104 
C 208.970638 176.743685 209.733769 177.059784 210.529378 177.059784 
z
" style="fill:#4c72b0;stroke:#ffffff;stroke-width:0.75;"/>
    <path clip-path="url(#p35ae5f9472)" d="M 227.616459 177.916428 
C 228.412069 177.916428 229.175199 177.600329 229.73778 177.037749 
C 230.30036 176.475168 230.616459 175.712038 230.616459 174.916428 
C 230.616459 174.120819 230.30036 173.357689 229.73778 172.795108 
C 229.175199 172.232527 228.412069 171.916428 227.616459 171.916428 
C 226.82085 171.916428 226.05772 172.232527 225.495139 172.795108 
C 224.932558 173.357689 224.616459 174.120819 224.616459 174.916428 
C 224.616459 175.712038 224.932558 176.475168 225.495139 177.037749 
C 226.05772 177.600329 226.82085 177.916428 227.616459 177.916428 
z
" style="fill:#4c72b0;stroke:#ffffff;stroke-width:0.75;"/>
    <path clip-path="url(#p35ae5f9472)" d="M 244.703541 177.404884 
C 245.49915 177.404884 246.26228 177.088785 246.824861 176.526204 
C 247.387442 175.963623 247.703541 175.200493 247.703541 174.404884 
C 247.703541 173.609274 247.387442 172.846144 246.824861 172.283563 
C 246.26228 171.720982 245.49915 171.404884 244.703541 171.404884 
C 243.907931 171.404884 243.144801 171.720982 242.58222 172.283563 
C 242.01964 172.846144 241.703541 173.609274 241.703541 174.404884 
C 241.703541 175.200493 242.01964 175.963623 242.58222 176.526204 
C 243.144801 177.088785 243.907931 177.404884 244.703541 177.404884 
z
" style="fill:#4c72b0;stroke:#ffffff;stroke-width:0.75;"/>
    <path clip-path="url(#p35ae5f9472)" d="M 261.790622 177.753978 
C 262.586231 177.753978 263.349362 177.437879 263.911942 176.875298 
C 264.474523 176.312717 264.790622 175.549587 264.790622 174.753978 
C 264.790622 173.958368 264.474523 173.195238 263.911942 172.632657 
C 263.349362 172.070077 262.586231 171.753978 261.790622 171.753978 
C 260.995013 171.753978 260.231882 172.070077 259.669302 172.632657 
C 259.106721 173.195238 258.790622 173.958368 258.790622 174.753978 
C 258.790622 175.549587 259.106721 176.312717 259.669302 176.875298 
C 260.231882 177.437879 260.995013 177.753978 261.790622 177.753978 
z
" style="fill:#4c72b0;stroke:#ffffff;stroke-width:0.75;"/>
    <path clip-path="url(#p35ae5f9472)" d="M 278.877703 177.490165 
C 279.673313 177.490165 280.436443 177.174066 280.999024 176.611485 
C 281.561604 176.048905 281.877703 175.285774 281.877703 174.490165 
C 281.877703 173.694556 281.561604 172.931425 280.999024 172.368845 
C 280.436443 171.806264 279.673313 171.490165 278.877703 171.490165 
C 278.082094 171.490165 277.318964 171.806264 276.756383 172.368845 
C 276.193802 172.931425 275.877703 173.694556 275.877703 174.490165 
C 275.877703 175.285774 276.193802 176.048905 276.756383 176.611485 
C 277.318964 177.174066 278.082094 177.490165 278.877703 177.490165 
z
" style="fill:#4c72b0;stroke:#ffffff;stroke-width:0.75;"/>
    <path clip-path="url(#p35ae5f9472)" d="M 295.964785 177.616553 
C 296.760394 177.616553 297.523524 177.300454 298.086105 176.737873 
C 298.648686 176.175293 298.964785 175.412162 298.964785 174.616553 
C 298.964785 173.820944 298.648686 173.057813 298.086105 172.495233 
C 297.523524 171.932652 296.760394 171.616553 295.964785 171.616553 
C 295.169175 171.616553 294.406045 171.932652 293.843464 172.495233 
C 293.280884 173.057813 292.964785 173.820944 292.964785 174.616553 
C 292.964785 175.412162 293.280884 176.175293 293.843464 176.737873 
C 294.406045 177.300454 295.169175 177.616553 295.964785 177.616553 
z
" style="fill:#4c72b0;stroke:#ffffff;stroke-width:0.75;"/>
    <path clip-path="url(#p35ae5f9472)" d="M 313.051866 177.562512 
C 313.847475 177.562512 314.610606 177.246413 315.173186 176.683833 
C 315.735767 176.121252 316.051866 175.358122 316.051866 174.562512 
C 316.051866 173.766903 315.735767 173.003773 315.173186 172.441192 
C 314.610606 171.878611 313.847475 171.562512 313.051866 171.562512 
C 312.256257 171.562512 311.493126 171.878611 310.930546 172.441192 
C 310.367965 173.003773 310.051866 173.766903 310.051866 174.562512 
C 310.051866 175.358122 310.367965 176.121252 310.930546 176.683833 
C 311.493126 177.246413 312.256257 177.562512 313.051866 177.562512 
z
" style="fill:#4c72b0;stroke:#ffffff;stroke-width:0.75;"/>
    <path clip-path="url(#p35ae5f9472)" d="M 330.138947 177.607168 
C 330.934557 177.607168 331.697687 177.291069 332.260268 176.728488 
C 332.822848 176.165908 333.138947 175.402777 333.138947 174.607168 
C 333.138947 173.811559 332.822848 173.048428 332.260268 172.485848 
C 331.697687 171.923267 330.934557 171.607168 330.138947 171.607168 
C 329.343338 171.607168 328.580208 171.923267 328.017627 172.485848 
C 327.455046 173.048428 327.138947 173.811559 327.138947 174.607168 
C 327.138947 175.402777 327.455046 176.165908 328.017627 176.728488 
C 328.580208 177.291069 329.343338 177.607168 330.138947 177.607168 
z
" style="fill:#4c72b0;stroke:#ffffff;stroke-width:0.75;"/>
    <path clip-path="url(#p35ae5f9472)" d="M 347.226029 177.54103 
C 348.021638 177.54103 348.784768 177.224931 349.347349 176.66235 
C 349.90993 176.099769 350.226029 175.336639 350.226029 174.54103 
C 350.226029 173.74542 349.90993 172.98229 349.347349 172.419709 
C 348.784768 171.857129 348.021638 171.54103 347.226029 171.54103 
C 346.430419 171.54103 345.667289 171.857129 345.104708 172.419709 
C 344.542128 172.98229 344.226029 173.74542 344.226029 174.54103 
C 344.226029 175.336639 344.542128 176.099769 345.104708 176.66235 
C 345.667289 177.224931 346.430419 177.54103 347.226029 177.54103 
z
" style="fill:#4c72b0;stroke:#ffffff;stroke-width:0.75;"/>
    <path clip-path="url(#p35ae5f9472)" d="M 364.31311 177.656786 
C 365.108719 177.656786 365.87185 177.340687 366.43443 176.778106 
C 366.997011 176.215525 367.31311 175.452395 367.31311 174.656786 
C 367.31311 173.861176 366.997011 173.098046 366.43443 172.535465 
C 365.87185 171.972885 365.108719 171.656786 364.31311 171.656786 
C 363.517501 171.656786 362.75437 171.972885 362.19179 172.535465 
C 361.629209 173.098046 361.31311 173.861176 361.31311 174.656786 
C 361.31311 175.452395 361.629209 176.215525 362.19179 176.778106 
C 362.75437 177.340687 363.517501 177.656786 364.31311 177.656786 
z
" style="fill:#4c72b0;stroke:#ffffff;stroke-width:0.75;"/>
    <path clip-path="url(#p35ae5f9472)" d="M 381.400191 177.560214 
C 382.195801 177.560214 382.958931 177.244115 383.521512 176.681534 
C 384.084092 176.118954 384.400191 175.355823 384.400191 174.560214 
C 384.400191 173.764605 384.084092 173.001474 383.521512 172.438894 
C 382.958931 171.876313 382.195801 171.560214 381.400191 171.560214 
C 380.604582 171.560214 379.841452 171.876313 379.278871 172.438894 
C 378.71629 173.001474 378.400191 173.764605 378.400191 174.560214 
C 378.400191 175.355823 378.71629 176.118954 379.278871 176.681534 
C 379.841452 177.244115 380.604582 177.560214 381.400191 177.560214 
z
" style="fill:#4c72b0;stroke:#ffffff;stroke-width:0.75;"/>
    <path clip-path="url(#p35ae5f9472)" d="M 398.487273 177.596018 
C 399.282882 177.596018 400.046012 177.279919 400.608593 176.717338 
C 401.171174 176.154757 401.487273 175.391627 401.487273 174.596018 
C 401.487273 173.800408 401.171174 173.037278 400.608593 172.474697 
C 400.046012 171.912117 399.282882 171.596018 398.487273 171.596018 
C 397.691663 171.596018 396.928533 171.912117 396.365952 172.474697 
C 395.803372 173.037278 395.487273 173.800408 395.487273 174.596018 
C 395.487273 175.391627 395.803372 176.154757 396.365952 176.717338 
C 396.928533 177.279919 397.691663 177.596018 398.487273 177.596018 
z
" style="fill:#4c72b0;stroke:#ffffff;stroke-width:0.75;"/>
    <path clip-path="url(#p35ae5f9472)" d="M 72.332727 298.488 
L 73.832727 296.988 
L 75.332727 298.488 
L 76.832727 296.988 
L 75.332727 295.488 
L 76.832727 293.988 
L 75.332727 292.488 
L 73.832727 293.988 
L 72.332727 292.488 
L 70.832727 293.988 
L 72.332727 295.488 
L 70.832727 296.988 
z
" style="fill:#dd8452;stroke:#ffffff;stroke-width:0.75;"/>
    <path clip-path="url(#p35ae5f9472)" d="M 89.419809 80.76 
L 90.919809 79.26 
L 92.419809 80.76 
L 93.919809 79.26 
L 92.419809 77.76 
L 93.919809 76.26 
L 92.419809 74.76 
L 90.919809 76.26 
L 89.419809 74.76 
L 87.919809 76.26 
L 89.419809 77.76 
L 87.919809 79.26 
z
" style="fill:#dd8452;stroke:#ffffff;stroke-width:0.75;"/>
    <path clip-path="url(#p35ae5f9472)" d="M 106.50689 238.038571 
L 108.00689 236.538571 
L 109.50689 238.038571 
L 111.00689 236.538571 
L 109.50689 235.038571 
L 111.00689 233.538571 
L 109.50689 232.038571 
L 108.00689 233.538571 
L 106.50689 232.038571 
L 105.00689 233.538571 
L 106.50689 235.038571 
L 105.00689 236.538571 
z
" style="fill:#dd8452;stroke:#ffffff;stroke-width:0.75;"/>
    <path clip-path="url(#p35ae5f9472)" d="M 123.593971 140.418468 
L 125.093971 138.918468 
L 126.593971 140.418468 
L 128.093971 138.918468 
L 126.593971 137.418468 
L 128.093971 135.918468 
L 126.593971 134.418468 
L 125.093971 135.918468 
L 123.593971 134.418468 
L 122.093971 135.918468 
L 123.593971 137.418468 
L 122.093971 138.918468 
z
" style="fill:#dd8452;stroke:#ffffff;stroke-width:0.75;"/>
    <path clip-path="url(#p35ae5f9472)" d="M 140.681053 200.777401 
L 142.181053 199.277401 
L 143.681053 200.777401 
L 145.181053 199.277401 
L 143.681053 197.777401 
L 145.181053 196.277401 
L 143.681053 194.777401 
L 142.181053 196.277401 
L 140.681053 194.777401 
L 139.181053 196.277401 
L 140.681053 197.777401 
L 139.181053 199.277401 
z
" style="fill:#dd8452;stroke:#ffffff;stroke-width:0.75;"/>
    <path clip-path="url(#p35ae5f9472)" d="M 157.768134 163.931692 
L 159.268134 162.431692 
L 160.768134 163.931692 
L 162.268134 162.431692 
L 160.768134 160.931692 
L 162.268134 159.431692 
L 160.768134 157.931692 
L 159.268134 159.431692 
L 157.768134 157.931692 
L 156.268134 159.431692 
L 157.768134 160.931692 
L 156.268134 162.431692 
z
" style="fill:#dd8452;stroke:#ffffff;stroke-width:0.75;"/>
    <path clip-path="url(#p35ae5f9472)" d="M 174.855215 186.866121 
L 176.355215 185.366121 
L 177.855215 186.866121 
L 179.355215 185.366121 
L 177.855215 183.866121 
L 179.355215 182.366121 
L 177.855215 180.866121 
L 176.355215 182.366121 
L 174.855215 180.866121 
L 173.355215 182.366121 
L 174.855215 183.866121 
L 173.355215 185.366121 
z
" style="fill:#dd8452;stroke:#ffffff;stroke-width:0.75;"/>
    <path clip-path="url(#p35ae5f9472)" d="M 191.942297 172.845839 
L 193.442297 171.345839 
L 194.942297 172.845839 
L 196.442297 171.345839 
L 194.942297 169.845839 
L 196.442297 168.345839 
L 194.942297 166.845839 
L 193.442297 168.345839 
L 191.942297 166.845839 
L 190.442297 168.345839 
L 191.942297 169.845839 
L 190.442297 171.345839 
z
" style="fill:#dd8452;stroke:#ffffff;stroke-width:0.75;"/>
    <path clip-path="url(#p35ae5f9472)" d="M 209.029378 181.412282 
L 210.529378 179.912282 
L 212.029378 181.412282 
L 213.529378 179.912282 
L 212.029378 178.412282 
L 213.529378 176.912282 
L 212.029378 175.412282 
L 210.529378 176.912282 
L 209.029378 175.412282 
L 207.529378 176.912282 
L 209.029378 178.412282 
L 207.529378 179.912282 
z
" style="fill:#dd8452;stroke:#ffffff;stroke-width:0.75;"/>
    <path clip-path="url(#p35ae5f9472)" d="M 226.116459 176.296835 
L 227.616459 174.796835 
L 229.116459 176.296835 
L 230.616459 174.796835 
L 229.116459 173.296835 
L 230.616459 171.796835 
L 229.116459 170.296835 
L 227.616459 171.796835 
L 226.116459 170.296835 
L 224.616459 171.796835 
L 226.116459 173.296835 
L 224.616459 174.796835 
z
" style="fill:#dd8452;stroke:#ffffff;stroke-width:0.75;"/>
    <path clip-path="url(#p35ae5f9472)" d="M 243.203541 179.787777 
L 244.703541 178.287777 
L 246.203541 179.787777 
L 247.703541 178.287777 
L 246.203541 176.787777 
L 247.703541 175.287777 
L 246.203541 173.787777 
L 244.703541 175.287777 
L 243.203541 173.787777 
L 241.703541 175.287777 
L 243.203541 176.787777 
L 241.703541 178.287777 
z
" style="fill:#dd8452;stroke:#ffffff;stroke-width:0.75;"/>
    <path clip-path="url(#p35ae5f9472)" d="M 260.290622 177.14965 
L 261.790622 175.64965 
L 263.290622 177.14965 
L 264.790622 175.64965 
L 263.290622 174.14965 
L 264.790622 172.64965 
L 263.290622 171.14965 
L 261.790622 172.64965 
L 260.290622 171.14965 
L 258.790622 172.64965 
L 260.290622 174.14965 
L 258.790622 175.64965 
z
" style="fill:#dd8452;stroke:#ffffff;stroke-width:0.75;"/>
    <path clip-path="url(#p35ae5f9472)" d="M 277.377703 178.413529 
L 278.877703 176.913529 
L 280.377703 178.413529 
L 281.877703 176.913529 
L 280.377703 175.413529 
L 281.877703 173.913529 
L 280.377703 172.413529 
L 278.877703 173.913529 
L 277.377703 172.413529 
L 275.877703 173.913529 
L 277.377703 175.413529 
L 275.877703 176.913529 
z
" style="fill:#dd8452;stroke:#ffffff;stroke-width:0.75;"/>
    <path clip-path="url(#p35ae5f9472)" d="M 294.464785 177.873122 
L 295.964785 176.373122 
L 297.464785 177.873122 
L 298.964785 176.373122 
L 297.464785 174.873122 
L 298.964785 173.373122 
L 297.464785 171.873122 
L 295.964785 173.373122 
L 294.464785 171.873122 
L 292.964785 173.373122 
L 294.464785 174.873122 
L 292.964785 176.373122 
z
" style="fill:#dd8452;stroke:#ffffff;stroke-width:0.75;"/>
    <path clip-path="url(#p35ae5f9472)" d="M 311.551866 178.31968 
L 313.051866 176.81968 
L 314.551866 178.31968 
L 316.051866 176.81968 
L 314.551866 175.31968 
L 316.051866 173.81968 
L 314.551866 172.31968 
L 313.051866 173.81968 
L 311.551866 172.31968 
L 310.051866 173.81968 
L 311.551866 175.31968 
L 310.051866 176.81968 
z
" style="fill:#dd8452;stroke:#ffffff;stroke-width:0.75;"/>
    <path clip-path="url(#p35ae5f9472)" d="M 328.638947 177.658297 
L 330.138947 176.158297 
L 331.638947 177.658297 
L 333.138947 176.158297 
L 331.638947 174.658297 
L 333.138947 173.158297 
L 331.638947 171.658297 
L 330.138947 173.158297 
L 328.638947 171.658297 
L 327.138947 173.158297 
L 328.638947 174.658297 
L 327.138947 176.158297 
z
" style="fill:#dd8452;stroke:#ffffff;stroke-width:0.75;"/>
    <path clip-path="url(#p35ae5f9472)" d="M 345.726029 178.815857 
L 347.226029 177.315857 
L 348.726029 178.815857 
L 350.226029 177.315857 
L 348.726029 175.815857 
L 350.226029 174.315857 
L 348.726029 172.815857 
L 347.226029 174.315857 
L 345.726029 172.815857 
L 344.226029 174.315857 
L 345.726029 175.815857 
L 344.226029 177.315857 
z
" style="fill:#dd8452;stroke:#ffffff;stroke-width:0.75;"/>
    <path clip-path="url(#p35ae5f9472)" d="M 362.81311 177.850141 
L 364.31311 176.350141 
L 365.81311 177.850141 
L 367.31311 176.350141 
L 365.81311 174.850141 
L 367.31311 173.350141 
L 365.81311 171.850141 
L 364.31311 173.350141 
L 362.81311 171.850141 
L 361.31311 173.350141 
L 362.81311 174.850141 
L 361.31311 176.350141 
z
" style="fill:#dd8452;stroke:#ffffff;stroke-width:0.75;"/>
    <path clip-path="url(#p35ae5f9472)" d="M 379.900191 178.208178 
L 381.400191 176.708178 
L 382.900191 178.208178 
L 384.400191 176.708178 
L 382.900191 175.208178 
L 384.400191 173.708178 
L 382.900191 172.208178 
L 381.400191 173.708178 
L 379.900191 172.208178 
L 378.400191 173.708178 
L 379.900191 175.208178 
L 378.400191 176.708178 
z
" style="fill:#dd8452;stroke:#ffffff;stroke-width:0.75;"/>
    <path clip-path="url(#p35ae5f9472)" d="M 396.987273 178.02823 
L 398.487273 176.52823 
L 399.987273 178.02823 
L 401.487273 176.52823 
L 399.987273 175.02823 
L 401.487273 173.52823 
L 399.987273 172.02823 
L 398.487273 173.52823 
L 396.987273 172.02823 
L 395.487273 173.52823 
L 396.987273 175.02823 
L 395.487273 176.52823 
z
" style="fill:#dd8452;stroke:#ffffff;stroke-width:0.75;"/>
   </g>
   <g id="line2d_18">
    <path clip-path="url(#p35ae5f9472)" d="M 73.832727 53.568 
L 90.919809 186.624 
L 108.00689 164.8512 
L 125.093971 180.579057 
L 142.181053 170.817047 
L 159.268134 176.85294 
L 176.355215 173.168369 
L 193.442297 175.461812 
L 210.529378 174.059784 
L 227.616459 174.916428 
L 244.703541 174.404884 
L 261.790622 174.753978 
L 278.877703 174.490165 
L 295.964785 174.616553 
L 313.051866 174.562512 
L 330.138947 174.607168 
L 347.226029 174.54103 
L 364.31311 174.656786 
L 381.400191 174.560214 
L 398.487273 174.596018 
" style="fill:none;stroke:#4c72b0;stroke-linecap:round;stroke-width:1.5;"/>
   </g>
   <g id="line2d_19">
    <path clip-path="url(#p35ae5f9472)" d="M 73.832727 295.488 
L 90.919809 77.76 
L 108.00689 235.038571 
L 125.093971 137.418468 
L 142.181053 197.777401 
L 159.268134 160.931692 
L 176.355215 183.866121 
L 193.442297 169.845839 
L 210.529378 178.412282 
L 227.616459 173.296835 
L 244.703541 176.787777 
L 261.790622 174.14965 
L 278.877703 175.413529 
L 295.964785 174.873122 
L 313.051866 175.31968 
L 330.138947 174.658297 
L 347.226029 175.815857 
L 364.31311 174.850141 
L 381.400191 175.208178 
L 398.487273 175.02823 
" style="fill:none;stroke:#dd8452;stroke-dasharray:6,2.25;stroke-dashoffset:0;stroke-width:1.5;"/>
   </g>
   <g id="line2d_20"/>
   <g id="line2d_21"/>
   <g id="patch_3">
    <path d="M 57.6 307.584 
L 57.6 41.472 
" style="fill:none;stroke:#ffffff;stroke-linecap:square;stroke-linejoin:miter;stroke-width:1.25;"/>
   </g>
   <g id="patch_4">
    <path d="M 414.72 307.584 
L 414.72 41.472 
" style="fill:none;stroke:#ffffff;stroke-linecap:square;stroke-linejoin:miter;stroke-width:1.25;"/>
   </g>
   <g id="patch_5">
    <path d="M 57.6 307.584 
L 414.72 307.584 
" style="fill:none;stroke:#ffffff;stroke-linecap:square;stroke-linejoin:miter;stroke-width:1.25;"/>
   </g>
   <g id="patch_6">
    <path d="M 57.6 41.472 
L 414.72 41.472 
" style="fill:none;stroke:#ffffff;stroke-linecap:square;stroke-linejoin:miter;stroke-width:1.25;"/>
   </g>
   <g id="text_20">
    <!-- System States -->
    <g style="fill:#262626;" transform="translate(197.480625 35.472)scale(0.12 -0.12)">
     <defs>
      <path d="M 6.203125 -19.96875 
L 5.21875 -11.71875 
Q 8.109375 -12.5 10.25 -12.5 
Q 13.1875 -12.5 14.9375 -11.515625 
Q 16.703125 -10.546875 17.828125 -8.796875 
Q 18.65625 -7.46875 20.515625 -2.25 
Q 20.75 -1.515625 21.296875 -0.09375 
L 1.609375 51.859375 
L 11.078125 51.859375 
L 21.875 21.828125 
Q 23.96875 16.109375 25.640625 9.8125 
Q 27.15625 15.875 29.25 21.625 
L 40.328125 51.859375 
L 49.125 51.859375 
L 29.390625 -0.875 
Q 26.21875 -9.421875 24.46875 -12.640625 
Q 22.125 -17 19.09375 -19.015625 
Q 16.0625 -21.046875 11.859375 -21.046875 
Q 9.328125 -21.046875 6.203125 -19.96875 
z
" id="ArialMT-121"/>
      <path id="ArialMT-32"/>
     </defs>
     <use xlink:href="#ArialMT-83"/>
     <use x="66.699219" xlink:href="#ArialMT-121"/>
     <use x="116.699219" xlink:href="#ArialMT-115"/>
     <use x="166.699219" xlink:href="#ArialMT-116"/>
     <use x="194.482422" xlink:href="#ArialMT-101"/>
     <use x="250.097656" xlink:href="#ArialMT-109"/>
     <use x="333.398438" xlink:href="#ArialMT-32"/>
     <use x="361.181641" xlink:href="#ArialMT-83"/>
     <use x="427.880859" xlink:href="#ArialMT-116"/>
     <use x="455.664062" xlink:href="#ArialMT-97"/>
     <use x="511.279297" xlink:href="#ArialMT-116"/>
     <use x="539.0625" xlink:href="#ArialMT-101"/>
     <use x="594.677734" xlink:href="#ArialMT-115"/>
    </g>
   </g>
   <g id="legend_1">
    <g id="patch_7">
     <path d="M 340.019688 81.391687 
L 407.02 81.391687 
Q 409.22 81.391687 409.22 79.191688 
L 409.22 49.172 
Q 409.22 46.972 407.02 46.972 
L 340.019688 46.972 
Q 337.819688 46.972 337.819688 49.172 
L 337.819688 79.191688 
Q 337.819688 81.391687 340.019688 81.391687 
z
" style="fill:#eaeaf2;opacity:0.8;stroke:#cccccc;stroke-linejoin:miter;"/>
    </g>
    <g id="line2d_22">
     <path d="M 342.219688 55.395594 
L 364.219688 55.395594 
" style="fill:none;stroke:#4c72b0;stroke-linecap:round;stroke-width:1.5;"/>
    </g>
    <g id="line2d_23"/>
    <g id="text_21">
     <!-- State1 -->
     <g style="fill:#262626;" transform="translate(373.019688 59.245594)scale(0.11 -0.11)">
      <use xlink:href="#ArialMT-83"/>
      <use x="66.699219" xlink:href="#ArialMT-116"/>
      <use x="94.482422" xlink:href="#ArialMT-97"/>
      <use x="150.097656" xlink:href="#ArialMT-116"/>
      <use x="177.880859" xlink:href="#ArialMT-101"/>
      <use x="233.496094" xlink:href="#ArialMT-49"/>
     </g>
    </g>
    <g id="line2d_24">
     <path d="M 342.219688 70.955438 
L 364.219688 70.955438 
" style="fill:none;stroke:#dd8452;stroke-dasharray:6,2.25;stroke-dashoffset:0;stroke-width:1.5;"/>
    </g>
    <g id="line2d_25"/>
    <g id="text_22">
     <!-- State2 -->
     <g style="fill:#262626;" transform="translate(373.019688 74.805438)scale(0.11 -0.11)">
      <use xlink:href="#ArialMT-83"/>
      <use x="66.699219" xlink:href="#ArialMT-116"/>
      <use x="94.482422" xlink:href="#ArialMT-97"/>
      <use x="150.097656" xlink:href="#ArialMT-116"/>
      <use x="177.880859" xlink:href="#ArialMT-101"/>
      <use x="233.496094" xlink:href="#ArialMT-50"/>
     </g>
    </g>
   </g>
  </g>
 </g>
 <defs>
  <clipPath id="p35ae5f9472">
   <rect height="266.112" width="357.12" x="57.6" y="41.472"/>
  </clipPath>
 </defs>
</svg>
